# xmcd
#
# Track frame offsets: 
#        150
#        15048
#        30442
#        46532
#        60600
#        77772
#        99702
#        115552
#        133408
#        152193
#        163398
#        180793
#
# Disc length: 2563 seconds
#
# Revision: 0
# Processed by: cddbd v1.5.2PL0 Copyright (c) Steve Scherf et al.
# Submitted via: ExactAudioCopyFreeDBPlugin 1.0
#
DISCID=850a010c
DTITLE=Pistol Annies - Annie Up
DYEAR=2013
DGENRE=Country
TTITLE0=I Feel A Sin Comin' On
TTITLE1=Hush Hush
TTITLE2=Being Pretty Ain't Pretty
TTITLE3=Unhappily Married
TTITLE4=Loved By A Workin' Man
TTITLE5=Blues, You're A Buzzkill
TTITLE6=Don't Talk About Him, Tina
TTITLE7=Trading One Heartbreak For Another
TTITLE8=Dear Sobriety
TTITLE9=Damn Thing
TTITLE10=Girls Like Us
TTITLE11=I Hope You're The End Of My Story
EXTD=
EXTT0=
EXTT1=
EXTT2=
EXTT3=
EXTT4=
EXTT5=
EXTT6=
EXTT7=
EXTT8=
EXTT9=
EXTT10=
EXTT11=
PLAYORDER=
